<svg id="CrescentMoon" width="40" height="40" xmlns="http://www.w3.org/2000/svg" viewBox="0 0 240 240"><path d="m119.18,218.5c-54.59,0-99-44.41-99-99,1.21-30.48,12.41-56.03,32.39-73.86,17.79-15.87,41.45-24.61,66.61-24.61,45.8,0,96.31,30.83,99,98.51,0,54.55-44.41,98.96-99,98.96Z" style="fill:#0d0d0d;"/><path d="m119.18,22.03c24.91,0,48.32,8.65,65.93,24.36,19.77,17.63,30.85,42.93,32.06,73.15-.02,54.02-43.98,97.96-98,97.96S21.2,173.56,21.18,119.54c1.2-30.22,12.29-55.52,32.06-73.15,17.61-15.71,41.03-24.36,65.95-24.36m0-2c-48.69,0-97.38,33.16-100,99.47,0,55.23,44.77,100,100,100s100-44.77,100-100c-2.63-66.32-51.32-99.47-100-99.47h0Z" style="fill:#0d0d0d;"/><path d="m120.16,219c-18.55-.02-61.98-33.71-61.98-99,0-61.41,40.14-99,62-99,30.48,1.21,56.04,12.41,73.86,32.4,15.87,17.79,24.61,41.45,24.61,66.61,0,45.8-30.83,96.31-98.49,99Z" style="fill:#a6a6a6;"/><path d="m120.14,22c30.23,1.21,55.52,12.3,73.15,32.06,15.71,17.61,24.36,41.03,24.36,65.94,0,24.91-8.65,48.33-24.36,65.94-17.63,19.77-42.93,30.85-73.15,32.06-8.98-.02-24.07-7.82-37.57-25.23-10.67-13.76-23.39-37.55-23.39-72.77,0-27.42,8.18-53.2,23.03-72.6,13.42-17.52,28.71-25.38,37.94-25.4m.04-2c-21.5,0-63,36.5-63,100s42.5,100,63,100c132.61-5.25,132.65-194.73,0-200h0Z" style="fill:#0d0d0d;"/></svg>