<?xml version="1.0" encoding="UTF-8"?><svg id="Gibbous" xmlns="http://www.w3.org/2000/svg" viewBox="0 0 240 240"><defs><style>.cls-1{fill:#a6a6a6;}.cls-2{fill:#0d0d0d;}</style></defs><path class="cls-2" d="m120.81,218.61c-45.58,0-95.86-30.64-98.54-97.9,0-54.21,44.21-98.35,98.54-98.35s98.54,44.14,98.54,98.39c-1.2,30.29-12.35,55.69-32.24,73.4-17.71,15.78-41.26,24.46-66.29,24.46h0Z"/><path class="cls-2" d="m120.82,23.35c53.77,0,97.52,43.67,97.54,97.35-1.2,30.04-12.23,55.17-31.91,72.7-17.53,15.61-40.84,24.21-65.64,24.21s-48.1-8.6-65.63-24.21c-19.67-17.52-30.71-42.66-31.91-72.7.02-53.69,43.77-97.36,97.54-97.36m0-1.99c-54.97,0-99.53,44.5-99.53,99.38,2.62,65.91,51.08,98.86,99.53,98.86s96.93-32.95,99.54-98.86c0-54.89-44.56-99.38-99.53-99.38h0Z"/><path class="cls-1" d="m119.84,218.64c-30.37-1.21-55.8-12.34-73.54-32.2-15.8-17.68-24.5-41.19-24.5-66.19,0-45.52,30.69-95.72,98.05-98.39,18.42,0,61.67,33.48,61.67,98.39,0,61.02-39.93,98.37-61.69,98.39Z"/><path class="cls-2" d="m119.86,22.85c8.94.02,23.96,7.78,37.4,25.07,10.62,13.67,23.28,37.32,23.28,72.32,0,27.25-8.14,52.87-22.92,72.15-13.35,17.42-28.58,25.23-37.76,25.25-30.09-1.2-55.26-12.22-72.82-31.87-15.63-17.5-24.24-40.77-24.24-65.53,0-24.76,8.61-48.03,24.25-65.53,17.55-19.65,42.73-30.66,72.81-31.86m-.04-1.99h0c-131.99,5.22-132.03,193.53,0,198.77,21.4,0,62.71-36.28,62.71-99.38S140.22,20.87,119.82,20.87h0Z"/></svg>