<?xml version="1.0" encoding="UTF-8"?><svg id="Half" xmlns="http://www.w3.org/2000/svg" viewBox="0 0 240 240"><defs><style>.cls-1{fill:#a6a6a6;}.cls-2{fill:#0d0d0d;}</style></defs><path class="cls-2" d="m121.02,21.03c54.11.55,97.96,44.74,97.96,98.97s-43.85,98.43-97.96,98.97V21.03Z"/><path class="cls-2" d="m122.04,22.06c53.08,1.09,95.92,44.61,95.92,97.94s-42.84,96.85-95.92,97.94V22.06m-2.04-2.06v200c55.23,0,100-44.77,100-100S175.23,20,120,20h0Z"/><path class="cls-1" d="m118.98,218.97c-54.11-.55-97.96-44.74-97.96-98.97S64.87,21.57,118.98,21.03v197.95Z"/><path class="cls-2" d="m117.96,22.06v195.87c-53.08-1.09-95.92-44.61-95.92-97.94S64.88,23.15,117.96,22.06m2.04-2.06c-55.23,0-100,44.77-100,100s44.77,100,100,100V20h0Z"/></svg>